<svg id="visual" viewBox="0 0 1920 1080" width="1920" height="1080" xmlns="http://www.w3.org/2000/svg" xmlns:xlink="http://www.w3.org/1999/xlink" version="1.1"><rect x="0" y="0" width="1920" height="1080" fill="#c5c5c5"></rect><path d="M0 466L53.3 516C106.7 566 213.3 666 320 712.5C426.7 759 533.3 752 640 704.2C746.7 656.3 853.3 567.7 960 493.5C1066.7 419.3 1173.3 359.7 1280 381C1386.7 402.3 1493.3 504.7 1600 532.5C1706.7 560.3 1813.3 513.7 1866.7 490.3L1920 467L1920 0L1866.7 0C1813.3 0 1706.7 0 1600 0C1493.3 0 1386.7 0 1280 0C1173.3 0 1066.7 0 960 0C853.3 0 746.7 0 640 0C533.3 0 426.7 0 320 0C213.3 0 106.7 0 53.3 0L0 0Z" fill="#162b40" stroke-linecap="round" stroke-linejoin="miter"></path></svg>