<svg id="visual" viewBox="0 0 1920 1080" width="1920" height="1080" xmlns="http://www.w3.org/2000/svg" xmlns:xlink="http://www.w3.org/1999/xlink" version="1.1"><rect x="0" y="0" width="1920" height="1080" fill="#162b40"></rect><defs><linearGradient id="grad1_0" x1="43.8%" y1="0%" x2="100%" y2="100%"><stop offset="14.444444444444446%" stop-color="#c5c5c5" stop-opacity="1"></stop><stop offset="85.55555555555554%" stop-color="#c5c5c5" stop-opacity="1"></stop></linearGradient></defs><defs><linearGradient id="grad1_1" x1="43.8%" y1="0%" x2="100%" y2="100%"><stop offset="14.444444444444446%" stop-color="#c5c5c5" stop-opacity="1"></stop><stop offset="85.55555555555554%" stop-color="#888d96" stop-opacity="1"></stop></linearGradient></defs><defs><linearGradient id="grad1_2" x1="43.8%" y1="0%" x2="100%" y2="100%"><stop offset="14.444444444444446%" stop-color="#4e5a6a" stop-opacity="1"></stop><stop offset="85.55555555555554%" stop-color="#888d96" stop-opacity="1"></stop></linearGradient></defs><defs><linearGradient id="grad1_3" x1="43.8%" y1="0%" x2="100%" y2="100%"><stop offset="14.444444444444446%" stop-color="#4e5a6a" stop-opacity="1"></stop><stop offset="85.55555555555554%" stop-color="#162b40" stop-opacity="1"></stop></linearGradient></defs><defs><linearGradient id="grad2_0" x1="0%" y1="0%" x2="56.3%" y2="100%"><stop offset="14.444444444444446%" stop-color="#c5c5c5" stop-opacity="1"></stop><stop offset="85.55555555555554%" stop-color="#c5c5c5" stop-opacity="1"></stop></linearGradient></defs><defs><linearGradient id="grad2_1" x1="0%" y1="0%" x2="56.3%" y2="100%"><stop offset="14.444444444444446%" stop-color="#888d96" stop-opacity="1"></stop><stop offset="85.55555555555554%" stop-color="#c5c5c5" stop-opacity="1"></stop></linearGradient></defs><defs><linearGradient id="grad2_2" x1="0%" y1="0%" x2="56.3%" y2="100%"><stop offset="14.444444444444446%" stop-color="#888d96" stop-opacity="1"></stop><stop offset="85.55555555555554%" stop-color="#4e5a6a" stop-opacity="1"></stop></linearGradient></defs><defs><linearGradient id="grad2_3" x1="0%" y1="0%" x2="56.3%" y2="100%"><stop offset="14.444444444444446%" stop-color="#162b40" stop-opacity="1"></stop><stop offset="85.55555555555554%" stop-color="#4e5a6a" stop-opacity="1"></stop></linearGradient></defs><g transform="translate(1920, 0)"><path d="M0 972C-121.4 952.1 -242.9 932.1 -369.3 891.5C-495.7 851 -627 789.7 -687.3 687.3C-747.6 584.9 -736.8 441.3 -772.4 319.9C-808 198.5 -890 99.3 -972 0L0 0Z" fill="#324254"></path><path d="M0 729C-91.1 714 -182.2 699.1 -277 668.7C-371.8 638.2 -470.3 592.3 -515.5 515.5C-560.7 438.7 -552.6 331 -579.3 239.9C-606 148.9 -667.5 74.4 -729 0L0 0Z" fill="#6b7380"></path><path d="M0 486C-60.7 476 -121.4 466.1 -184.6 445.8C-247.8 425.5 -313.5 394.9 -343.7 343.7C-373.8 292.5 -368.4 220.7 -386.2 160C-404 99.3 -445 49.6 -486 0L0 0Z" fill="#a6a9ad"></path><path d="M0 243C-30.4 238 -60.7 233 -92.3 222.9C-123.9 212.7 -156.8 197.4 -171.8 171.8C-186.9 146.2 -184.2 110.3 -193.1 80C-202 49.6 -222.5 24.8 -243 0L0 0Z" fill="#c5c5c5"></path></g><g transform="translate(0, 1080)"><path d="M0 -972C134 -964.5 267.9 -957 372 -898C476 -839 550.2 -728.6 635 -635C719.8 -541.4 815.1 -464.7 873.1 -361.6C931 -258.6 951.5 -129.3 972 0L0 0Z" fill="#324254"></path><path d="M0 -729C100.5 -723.4 200.9 -717.7 279 -673.5C357 -629.3 412.7 -546.4 476.2 -476.2C539.8 -406 611.3 -348.5 654.8 -271.2C698.3 -194 713.6 -97 729 0L0 0Z" fill="#6b7380"></path><path d="M0 -486C67 -482.2 134 -478.5 186 -449C238 -419.5 275.1 -364.3 317.5 -317.5C359.9 -270.7 407.6 -232.3 436.5 -180.8C465.5 -129.3 475.8 -64.7 486 0L0 0Z" fill="#a6a9ad"></path><path d="M0 -243C33.5 -241.1 67 -239.2 93 -224.5C119 -209.8 137.6 -182.1 158.7 -158.7C179.9 -135.3 203.8 -116.2 218.3 -90.4C232.8 -64.7 237.9 -32.3 243 0L0 0Z" fill="#c5c5c5"></path></g></svg>